# xmcd
#
# Track frame offsets: 
#        187
#        17762
#        35385
#        51022
#        64610
#        78405
#        94885
#        113185
#        124605
#        142482
#
# Disc length: 2088 seconds
#
# Revision: 2
# Processed by: cddbd v1.4PL0 Copyright (c) Steve Scherf et al.
# Submitted via: ExactAudioCopy v0.90b3
#
DISCID=8608260a
DTITLE=The Bellamy Brothers - Country Rap
DYEAR=1900
DGENRE=Country
TTITLE0=Too Much Is Not Enough (With The Forester Sisters)
TTITLE1=Sweet Nostalgia
TTITLE2=Kids Of The Baby Boom
TTITLE3=One Too Many Times
TTITLE4=Go Ahead - Fall In Love
TTITLE5=D-D-D-D-Divorce
TTITLE6=Our Family
TTITLE7=Country Rap
TTITLE8=Hard On The Heart
TTITLE9=Where The Light Comes From
EXTD=
EXTT0=
EXTT1=
EXTT2=
EXTT3=
EXTT4=
EXTT5=
EXTT6=
EXTT7=
EXTT8=
EXTT9=
PLAYORDER=
